<svg xmlns="http://www.w3.org/2000/svg" data-name="Layer 1" viewBox="0 0 32 32"><path d="M31.908,30.653,30.478,21.42V15.975a2.065,2.065,0,0,0-1.566-2V12.861a3.247,3.247,0,0,0,1.249-1.385l0-.008a3.206,3.206,0,0,0,.313-1.367,3.233,3.233,0,0,0-6.148-1.408c-.006.009-.01.019-.015.028a3.193,3.193,0,0,0,1.247,4.14V14.2a2.062,2.062,0,0,0-.241.161l-2.372,1.9H21.9a7,7,0,1,0-11.791,0H9.053l-2.373-1.9a2.051,2.051,0,0,0-.24-.161V12.861A3.193,3.193,0,0,0,7.685,8.72c-.005-.008-.008-.018-.014-.026a3.231,3.231,0,1,0-5.836,2.774l0,.008a3.247,3.247,0,0,0,1.249,1.385v1.115a2.065,2.065,0,0,0-1.566,2V21.42L.091,30.659a1.3,1.3,0,0,0,2.545.5l2.023-6.448.756.83-.632,5.077a.944.944,0,0,0-.018.2,1.319,1.319,0,0,0,2.6.327l1.284-5.068a2.1,2.1,0,0,0-.073-1.26L7.223,21.364v-2.43l.767.575a.5.5,0,0,0,.3.1h1.958A1.672,1.672,0,0,0,11.9,18.161a6.948,6.948,0,0,0,8.2,0,1.672,1.672,0,0,0,1.652,1.448h1.958a.5.5,0,0,0,.3-.1l.767-.575v2.43l-1.352,3.455a2.091,2.091,0,0,0-.073,1.259l1.284,5.071a1.319,1.319,0,0,0,2.6-.33.8.8,0,0,0-.012-.164l-.638-5.113.756-.831,2.011,6.4a1.3,1.3,0,0,0,2.556-.462ZM7.006,10.1A2.231,2.231,0,0,1,3.29,11.775h.3a.5.5,0,0,0,.5-.5V10.119l2.842-.563A2.215,2.215,0,0,1,7.006,10.1ZM5.439,13.269v.644c-.017,0-.033,0-.05,0h-1.3v-.64a3.157,3.157,0,0,0,1.351,0Zm-2.8-2.493a2.208,2.208,0,0,1-.115-.675A2.232,2.232,0,0,1,6.445,8.633l-2.953.585a.5.5,0,0,0-.4.49v1.067ZM1.669,30.9c-.055.252-.446.217-.518.133a.293.293,0,0,1-.071-.232l1.371-8.848H4.475ZM7.643,25.18a1.09,1.09,0,0,1,.036.652L6.395,30.9a.323.323,0,0,1-.625-.118l.666-5.342a.5.5,0,0,0-.126-.4l-1.3-1.432.517-1.648h.859ZM9,18.608H8.456l-3-2.25a.5.5,0,1,0-.6.8L6.247,18.2a.482.482,0,0,0-.025.123v2.633h-3.7V15.975a1.068,1.068,0,0,1,1.066-1.066h1.8a1.069,1.069,0,0,1,.666.234L8.564,17.15a.5.5,0,0,0,.313.109H9Zm1.247,0H10v-1.35h.247a.675.675,0,0,1,0,1.35ZM16,18.5a6,6,0,1,1,6-6A6.007,6.007,0,0,1,16,18.5Zm6,.108h-.247a.675.675,0,0,1,0-1.35H22Zm5.236-10.75A2.244,2.244,0,0,1,29.478,10.1a2.208,2.208,0,0,1-.115.675h-.451V9.708a.5.5,0,0,0-.4-.49l-2.953-.585A2.228,2.228,0,0,1,27.236,7.859ZM24.994,10.1a2.215,2.215,0,0,1,.075-.545l2.842.563v1.156a.5.5,0,0,0,.5.5h.3A2.231,2.231,0,0,1,24.994,10.1Zm2.917,3.168v.64h-1.3c-.017,0-.033,0-.05,0v-.644a3.157,3.157,0,0,0,1.351,0ZM25.69,25.039a.5.5,0,0,0-.126.4l.67,5.382a.323.323,0,0,1-.322.322.329.329,0,0,1-.307-.242l-1.284-5.067a1.086,1.086,0,0,1,.036-.651l1.261-3.223h.859l.517,1.647Zm1.154-4.08H25.777V18.325a.482.482,0,0,0-.025-.123l1.392-1.044a.5.5,0,1,0-.6-.8l-3,2.25H23V17.259h.123a.5.5,0,0,0,.313-.109l2.508-2.007a1.074,1.074,0,0,1,.667-.234h1.8a1.068,1.068,0,0,1,1.066,1.066v4.983H26.845Zm4,10.08a.332.332,0,0,1-.529-.178l-2.794-8.9h2.023l1.37,8.841A.3.3,0,0,1,30.849,31.038ZM15.5,10h2a.5.5,0,0,0,0-1h-1V8.5a.5.5,0,0,0-1,0V9A1.5,1.5,0,0,0,14,10.5v1A1.5,1.5,0,0,0,15.5,13h1a.5.5,0,0,1,.5.5v1a.5.5,0,0,1-.5.5h-2a.5.5,0,0,0,0,1h1v.5a.5.5,0,0,0,1,0V16A1.5,1.5,0,0,0,18,14.5v-1A1.5,1.5,0,0,0,16.5,12h-1a.5.5,0,0,1-.5-.5v-1A.5.5,0,0,1,15.5,10Z"/></svg>