<svg xmlns="http://www.w3.org/2000/svg" data-name="Layer 1" viewBox="0 0 512 512"><path d="M511.93213,205.50366c-.01416-.10644-.03858-.20959-.05689-.31494-.03735-.21289-.07836-.42407-.13354-.63184-.03223-.1206-.071-.23767-.10889-.35607-.06006-.1886-.12573-.37439-.20044-.55713-.04834-.1178-.09912-.23365-.15307-.34876-.08374-.178-.17554-.35107-.27295-.522-.06128-.10791-.1211-.21582-.188-.32056-.11182-.17541-.23486-.343-.36108-.50891-.06763-.08874-.12989-.18054-.20142-.26623a7.49194,7.49194,0,0,0-.54712-.5835c-.03882-.0376-.07227-.07983-.11206-.11658a7.51182,7.51182,0,0,0-.69727-.57238L277.99805,33.15137a37.42331,37.42331,0,0,0-43.9961.00049L3.10059,200.40479a7.50013,7.50013,0,0,0-.69751.57263c-.03882.036-.07178.07727-.10975.11413a7.46319,7.46319,0,0,0-.54919.5857c-.07153.08569-.13391.17749-.20142.26623-.12634.1659-.24939.3335-.36108.50891-.06677.10474-.12671.21265-.188.32056-.09741.1709-.18921.344-.273.522-.054.115-.10473.23071-.153.34863-.07495.18311-.1405.36915-.20081.55811-.03772.11792-.07653.23462-.1084.35461-.05529.20813-.09643.4198-.13378.63294-.01831.10522-.04285.20825-.05677.31445a7.4962,7.4962,0,0,0-.068.97486v242a37.54227,37.54227,0,0,0,37.5,37.5h437a37.54227,37.54227,0,0,0,37.5-37.5v-242A7.51729,7.51729,0,0,0,511.93213,205.50366ZM242.80078,45.2998a22.45426,22.45426,0,0,1,26.39844,0L491.71484,206.47839,392,278.70654V176.48a37.54227,37.54227,0,0,0-37.5-37.5h-197a37.54227,37.54227,0,0,0-37.5,37.5V278.70679l-99.715-72.2284Zm.17383,217.4375a56.86589,56.86589,0,0,0,29.68945,8.34815,59.90333,59.90333,0,0,0,11.7417-1.1842,28.42665,28.42665,0,0,1-56.83642-.98377V256.458a28.42689,28.42689,0,0,1,56.78833-1.93164,43.74308,43.74308,0,0,1-22.04126.26758,42.27122,42.27122,0,0,1-11.54688-4.87207,7.49993,7.49993,0,1,0-7.79492,12.81542Zm24.10547,48.1731v.75952a10.76027,10.76027,0,1,1-21.52051,0v-.59875a43.36759,43.36759,0,0,0,21.52051-.16077Zm-10.75977,26.51978a25.79172,25.79172,0,0,0,20.91455-10.75049l15.00733,7.999a29.83776,29.83776,0,0,1,10.15283,8.93286l-33.1958,24.04517a22.45582,22.45582,0,0,1-26.39844.00049l-33.21484-24.05909a29.81678,29.81678,0,0,1,10.16992-8.91845l15.47021-8.23975A25.72381,25.72381,0,0,0,256.32031,337.43018Zm42.97657-15.98877-17.23609-9.187c.0044-.19494.01929-.38928.01929-.58447v-8.04883a43.38844,43.38844,0,0,0,17.35058-34.70361V256.458a43.43066,43.43066,0,1,0-86.86132,0v12.45947a43.39247,43.39247,0,0,0,17.99023,35.16711v7.58533c0,.0857.00708.1709.00781.25659l-17.86816,9.51685a44.82367,44.82367,0,0,0-15.25513,13.35986L135,289.572V176.48a22.52554,22.52554,0,0,1,22.5-22.5h197a22.52554,22.52554,0,0,1,22.5,22.5v113.0918l-62.44141,45.229A44.91936,44.91936,0,0,0,299.29688,321.44141ZM15,448.47852V221.17188L154.72266,322.37939,17.78833,459.31372A22.356,22.356,0,0,1,15,448.47852Zm459.5,22.5H37.5a22.37067,22.37067,0,0,1-8.49292-1.66968L167.02515,331.29077l66.9768,48.51441a37.42488,37.42488,0,0,0,43.9961,0L346.688,330.0498,485.00513,468.36694A22.354,22.354,0,0,1,474.5,470.97852Zm22.5-22.5a22.37069,22.37069,0,0,1-1.81738,8.85205l-136.1919-136.192L497,221.17188Z"/></svg>